PathFileType	4	(X/Y/Z)	/Users/mathieubourgeois/Desktop/Analyse/Traitement/Sujet_01/Data/Transformed_Sujet_01_velo_60.trc
DataRate	CameraRate	NumFrames	NumMarkers	Units	OrigDataRate	OrigDataStartFrame	OrigNumFrames
120.000000	120.000000	6	36	mm	120.000000	1448	1931
Frame#	Time	C7			RFHD			LFHD			RBHD			LBHD			RSHO			LSHO			CLAV			STRN			T10			RBWT			LBWT			RFWT			LFWT			RRAD			RWRA			RWRB			RCAR			RHUM			LHUM			LRAD			LWRA			LWRB			LCAR			RKNI			RKNE			LKNI			LKNE			RANE			RANI			RTOE			RHEE			LTOE			LANI			LANE			LHEE			
		X1	Y1	Z1	X2	Y2	Z2	X3	Y3	Z3	X4	Y4	Z4	X5	Y5	Z5	X6	Y6	Z6	X7	Y7	Z7	X8	Y8	Z8	X9	Y9	Z9	X10	Y10	Z10	X11	Y11	Z11	X12	Y12	Z12	X13	Y13	Z13	X14	Y14	Z14	X15	Y15	Z15	X16	Y16	Z16	X17	Y17	Z17	X18	Y18	Z18	X19	Y19	Z19	X20	Y20	Z20	X21	Y21	Z21	X22	Y22	Z22	X23	Y23	Z23	X24	Y24	Z24	X25	Y25	Z25	X26	Y26	Z26	X27	Y27	Z27	X28	Y28	Z28	X29	Y29	Z29	X30	Y30	Z30	X31	Y31	Z31	X32	Y32	Z32	X33	Y33	Z33	X34	Y34	Z34	X35	Y35	Z35	X36	Y36	Z36	

1449	12.06666666666667	-30.74665451049808	1461.20458984375	257.8413085937499	67.65850830078121	1549.920288085938	387.2362060546874	167.0661315917968	1513.197143554688	320.1642150878905	-20.51950645446781	1561.694213867188	264.4118347167968	78.25211334228513	1521.804443359375	187.7449493408202	-17.58597755432133	1387.500366210938	361.6361694335937	-16.75053215026857	1383.159912109375	136.9764556884765	4.620468139648406	1330.791015625	259.1947631835937	-48.03168106079104	1224.651489257812	260.2142333984374	-232.994873046875	1380.181884765625	258.590118408203	-419.0758666992188	1109.726928710938	325.6334838867186	-418.2129821777344	1099.268432617188	206.5041503906249	-248.2519531250001	1082.717163085938	377.9730529785155	-235.3949279785157	1068.968383789062	154.3600921630859	88.03522491455072	1133.711547851562	456.2837524414062	297.0353088378906	1028.767456054688	391.2023620605469	323.7975463867187	1047.40771484375	449.1681518554688	400.5885925292968	1033.568603515625	377.2377014160156	137.0519561767578	1173.651977539062	480.4744262695312	150.2592620849609	1173.267944335938	43.4696540832519	98.42822265624999	1138.88623046875	66.90570831298822	319.7667846679688	1040.510498046875	132.3958587646484	341.9457702636719	1054.001831054688	69.40189361572263	405.1585083007812	1041.523681640625	139.4190368652344	-13.90043067932133	864.0986938476562	333.0971984863281	-1.53869521617895	899.5419921875	452.9983825683593	-105.8987503051758	661.5029907226562	214.737564086914	-128.14794921875	646.69287109375	91.60924530029291	-228.8101654052735	646.8485717773438	425.1889038085937	-199.6357574462891	639.2536010742188	348.3190612792968	-75.52671813964849	535.0468139648438	432.6553039550781	-301.1064758300782	617.5128173828125	377.0606384277343	26.92536544799803	218.5995483398438	135.1262664794922	-134.22998046875	307.5419006347656	179.3187866210937	-154.501953125	302.2852783203125	104.6743927001953	-221.8306427001953	264.331787109375	144.076675415039	
1450	12.075	-30.86499786376956	1461.116333007812	257.9149780273436	68.4765243530273	1549.244018554688	387.0882568359374	167.39013671875	1512.318603515625	319.4554443359374	-20.29136085510257	1561.842895507812	264.7879638671874	77.8595275878906	1521.76953125	187.4851531982421	-17.68602752685551	1387.51025390625	361.7692871093749	-17.00344467163088	1382.92626953125	137.1610565185546	4.440241813659636	1330.663940429688	259.3424377441406	-48.58702087402347	1224.406127929688	260.6535949707031	-233.2683563232422	1380.322021484375	258.8267211914061	-419.5712890625001	1109.959106445312	325.7650756835936	-418.5999450683594	1099.428100585938	206.6595153808593	-248.8625488281251	1083.102172851562	378.0789794921874	-235.6197662353516	1068.993041992188	154.5775604248046	87.92230224609369	1133.799926757812	456.4052429199218	296.9333190917968	1028.935791015625	391.1433410644531	323.7347106933593	1047.481323242188	449.1419067382812	400.3527832031249	1033.893798828125	377.5004577636719	136.9360351562499	1173.714721679688	480.5683288574218	150.0655517578125	1173.199951171875	43.61253738403315	98.27867126464842	1138.764404296875	67.11373138427729	319.7084350585938	1040.522583007812	132.4166412353515	341.8451843261719	1054.030639648438	69.4232482910156	405.0961608886719	1041.548461914062	139.4067687988281	-13.14485645294194	868.0281372070312	332.2242431640624	-0.7721796631813603	903.2073364257812	452.2142639160156	-109.7329254150391	660.3345336914062	215.280517578125	-131.1257781982422	645.5189819335938	91.86203002929682	-223.9292144775391	646.7509765625	425.0758666992187	-194.5842590332032	639.7398071289062	348.1798400878906	-67.73593902587896	539.3381958007812	432.7879028320312	-295.5660095214844	615.2786254882812	377.0504455566405	18.40650939941404	215.1943206787109	134.9286651611328	-141.4903106689453	306.4615783691406	179.3111419677734	-161.8004760742188	301.5006713867188	104.7202224731445	-229.6414489746094	264.64208984375	144.0807647705078	
1451	12.08333333333333	-30.96983718872074	1461.026123046875	258.0010681152343	69.42166137695308	1548.4609375	386.9593200683593	168.000991821289	1511.373779296875	318.3088378906249	-20.07439231872562	1562.046630859375	265.2728271484374	77.39928436279294	1522.076782226562	187.2199096679687	-17.818042755127	1387.48291015625	361.8922729492187	-17.23023796081545	1382.730102539062	137.3242187499999	4.336446762084929	1330.551879882812	259.5130920410156	-48.91859054565433	1224.290405273438	260.9427795410156	-233.5018615722657	1380.46923828125	259.0273437499999	-420.0608520507813	1110.398071289062	325.7830810546874	-419.0083923339844	1099.582397460938	206.7187957763671	-249.5028686523438	1083.459838867188	378.2260131835936	-235.8585662841797	1069.052490234375	154.7918243408202	87.82669067382807	1133.8828125	456.4994812011718	296.8568420410156	1029.087036132812	391.0684204101562	323.6668395996093	1047.571166992188	449.071044921875	400.3232116699218	1033.898315429688	377.4380798339844	136.8560333251953	1173.789672851562	480.6201477050781	149.8982238769531	1173.170288085938	43.70604324340815	98.14663696289061	1138.693603515625	67.28836059570307	319.665283203125	1040.548461914062	132.3897705078125	341.7497253417969	1054.045288085938	69.3923416137695	405.0451354980469	1041.556884765625	139.3625640869141	-11.94907569885258	870.82275390625	332.3615417480468	-0.1467909365892963	906.434814453125	451.4108886718749	-111.9721450805664	659.2008666992188	215.3497161865234	-133.6495819091797	644.6743774414062	92.01825714111322	-218.7591705322266	645.9932250976562	424.9583129882812	-189.2457122802735	639.6539916992188	348.0436096191406	-59.82115936279302	543.03955078125	432.9146728515624	-289.7517089843751	612.373779296875	376.8818054199218	9.710359573364242	212.3955993652344	134.7302856445312	-148.9247131347657	305.8509216308594	179.3024597167968	-169.1956787109375	301.1939697265625	104.7276535034179	-237.6191711425782	265.3154602050781	144.1366577148437	
1452	12.09166666666667	-31.04690933227542	1460.933715820312	258.0482788085936	70.54022216796871	1547.549194335938	386.8110961914061	168.5957794189453	1510.333374023438	317.1366271972655	-19.73899841308597	1562.313232421875	265.8396911621093	76.92510986328122	1522.243408203125	186.9086608886718	-17.90196800231938	1387.423950195312	361.9350891113281	-17.45923995971681	1382.565673828125	137.4528503417968	4.270464420318572	1330.462280273438	259.6666870117187	-49.11453247070316	1224.132690429688	261.1977844238281	-233.699935913086	1380.614135742188	259.1875610351561	-420.6144714355469	1110.633544921875	325.7277526855468	-419.3940734863281	1099.783569335938	206.6674499511718	-250.1405792236329	1083.760009765625	378.3861694335936	-236.1315307617188	1069.115478515625	155.015167236328	87.72780609130854	1133.993041992188	456.5613098144531	296.7580261230468	1029.224975585938	390.9401245117188	323.6010742187499	1047.6513671875	448.9807739257812	400.2878112792968	1033.915771484375	377.3363342285156	136.7849731445312	1173.888427734375	480.6520080566406	149.7592163085938	1173.164916992188	43.77433776855464	98.01929473876952	1138.669555664062	67.39473724365229	319.6117248535156	1040.575073242188	132.3182525634765	341.66796875	1054.0615234375	69.30548095703122	404.9933776855469	1041.549926757812	139.2577514648438	-11.48133182525639	872.4694213867188	332.6350708007812	0.3727844059466764	909.2426147460938	450.6595764160156	-114.0096282958985	658.4080810546875	215.3144989013672	-135.7561187744141	644.1962890625	92.05038452148432	-213.3737030029297	644.6650390625	424.8370361328124	-183.7247314453125	638.95654296875	347.8740844726562	-51.8405151367188	546.1444702148438	433.0005493164062	-283.6239318847657	608.9658203125	376.687774658203	0.849813342094405	210.1322631835938	134.5354156494141	-156.4944458007813	305.7214660644531	179.2487792968749	-176.6320648193359	301.3716735839844	104.6700744628906	-245.7256622314453	266.4582824707031	144.122085571289	
1453	12.1	-31.05953598022464	1460.839599609375	258.059600830078	71.87535095214839	1546.563598632812	386.6387634277343	169.1547546386718	1509.1962890625	315.9764404296874	-19.35843467712406	1562.598022460938	266.5422058105468	76.42585754394528	1522.465576171875	186.5797576904296	-17.91801071166996	1387.332153320312	361.8911132812499	-17.62090873718263	1382.433959960938	137.538360595703	4.223282814025847	1330.352172851562	259.7589721679687	-49.23175430297855	1224.00048828125	261.4649658203124	-233.8582305908203	1380.772094726562	259.3211364746093	-421.1971740722657	1110.85400390625	325.608184814453	-419.8060913085938	1099.97021484375	206.5449066162108	-250.7626037597657	1084.015014648438	378.4579162597655	-236.4164581298828	1069.216918945312	155.2113800048827	87.62801361083979	1134.094482421875	456.5768432617187	296.6738891601562	1029.35693359375	390.75146484375	323.5261840820312	1047.785766601562	448.8031616210938	400.2646789550781	1033.943237304688	377.1734619140625	136.7244110107421	1173.989379882812	480.6597290039062	149.6182861328125	1173.181396484375	43.81398773193354	97.91477203369139	1138.662353515625	67.42237091064447	319.5789184570312	1040.612426757812	132.1824951171875	341.5970153808594	1054.091552734375	69.16490173339841	404.9458312988281	1041.536010742188	139.0876770019531	-8.882203102111857	880.6124267578125	326.8821716308593	0.7623642086982176	911.6456298828125	449.9830322265624	-115.6381225585938	657.9244995117188	215.1990509033203	-137.7392578125	643.9735107421875	91.86399078369135	-207.7189483642579	642.7695922851562	424.6789245605468	-177.9681549072266	637.678466796875	347.7151184082031	-43.74508285522466	548.6124267578125	433.0334167480468	-276.5083923339844	605.3800659179688	377.0803222656249	-8.082934379577653	208.4156646728516	134.3186950683594	-164.2058715820313	306.0804443359375	179.1741943359374	-184.2895202636719	302.051513671875	104.6012191772461	-253.9050750732422	268.0885620117188	144.0511627197265	
1454	12.10833333333333	-31.06621360778812	1460.7705078125	258.0663146972655	73.36258697509761	1545.397827148438	386.4794616699218	169.8031463623047	1507.999389648438	314.7247314453124	-18.95758247375491	1562.919799804688	267.4025573730468	75.83935546874997	1522.774169921875	186.2760925292968	-17.92608261108403	1387.24072265625	361.8024902343749	-17.76851463317873	1382.357055664062	137.6244201660155	4.143058776855437	1330.227294921875	259.7829895019531	-49.32520294189457	1223.878173828125	261.6771240234374	-234.0097198486328	1380.945922851562	259.4247131347655	-421.7531738281251	1111.04052734375	325.458038330078	-420.1841125488281	1100.19140625	206.4209594726561	-251.3986816406251	1084.193603515625	378.5197753906249	-236.707504272461	1069.367919921875	155.3558959960937	87.55393218994135	1134.204711914062	456.5705871582031	296.5827331542968	1029.485473632812	390.5292663574219	323.4663085937499	1047.875122070312	448.6042785644531	400.4474182128906	1033.60888671875	376.7607421875	136.6760559082031	1174.079711914062	480.6536865234374	149.5119934082031	1173.221069335938	43.80091857910151	97.80963897705077	1138.685424804688	67.42125701904291	319.5381469726562	1040.62841796875	132.0321502685547	341.5312805175781	1054.111938476562	69.0007629394531	404.9007263183594	1041.518432617188	138.8977661132812	-8.001914024353068	881.8916015625	326.9249877929687	1.076559901237433	913.5294799804688	449.3181457519531	-117.0283126831055	657.7891845703125	214.9652099609374	-138.9930725097656	644.1473388671875	91.58474731445307	-201.8174438476563	640.2966918945312	424.5393981933593	-171.0462341308594	635.90869140625	348.0246582031249	-35.60426712036138	550.4429931640625	433.0411682128906	-269.6919860839844	601.1754760742188	377.0346069335936	-17.05608558654787	207.2442932128906	134.0809326171875	-171.901840209961	306.9618530273438	179.0340270996093	-191.8315734863281	303.2060241699219	104.4582290649414	-262.1016235351562	270.2244873046875	143.9380645751953	
